# xmcd
#
# Track frame offsets:
#	150
#	9030
#	19762
#	32427
#	41242
#	46920
#	58308
#	68538
#	77911
#	86648
#	94693
#	106453
#	117718
#	127070
#	136537
#	144699
#	153694
#	164241
#	173573
#	183688
#	191184
#	199509
#	207437
#	216337
#
# Disc length: 3043 seconds
#
# Revision: 0
# Processed by: cddbd v1.5.2PL0 Copyright (c) Steve Scherf et al.
# Submitted via: EZCDAudioConverter 2.1.7.1
#
DISCID=620be118
DTITLE=Roger Miller - The Chronogical Classics 1962-1964
DYEAR=1900
DGENRE=Honky-tonk
TTITLE0=If You Want Me To
TTITLE1=Hey Little Star
TTITLE2=I'll Be Somewhere
TTITLE3=Trouble On The Turnpike
TTITLE4=So Saith He The Lord
TTITLE5=Lock, Stock and Teardrops
TTITLE6=But I Love You More
TTITLE7=I Know Who It Is (& I'm Gonna Tell Him)
TTITLE8=You're Part Of Me
TTITLE9=It Happened Just That Way
TTITLE10=Ain't That Fine
TTITLE11=Less and Less
TTITLE12=Chug-A-Lug
TTITLE13=I Ain't Comin' Home Tonight
TTITLE14=Lou's Got The Flu
TTITLE15=The Moon Is High (& So Am I)
TTITLE16=You Got 2 Again
TTITLE17=Feel Of Me
TTITLE18=That's Why I Love You Like I Do
TTITLE19=Squares Make The World Go 'Round
TTITLE20=Dang Me
TTITLE21=Private John Q
TTITLE22=If You Want Me To
TTITLE23=It Takes All Kinds To Make A World
EXTD=
EXTT0=
EXTT1=
EXTT2=
EXTT3=
EXTT4=
EXTT5=
EXTT6=
EXTT7=
EXTT8=
EXTT9=
EXTT10=
EXTT11=
EXTT12=
EXTT13=
EXTT14=
EXTT15=
EXTT16=
EXTT17=
EXTT18=
EXTT19=
EXTT20=
EXTT21=
EXTT22=
EXTT23=
PLAYORDER=
